<svg width="290" height="140" viewBox="0 0 290 140" fill="none" xmlns="http://www.w3.org/2000/svg">
<path d="M152.574 0C154.916 0 157.33 0 159.672 0C159.526 16.1736 159.672 32.4203 159.599 48.5938C159.453 59.4982 149.427 68.8657 138.597 68.4997C127.986 68.5729 118.473 59.2786 118.108 48.667C118.034 41.1291 118.108 33.5912 118.034 26.0533C120.449 26.0533 122.791 26.0533 125.206 26.0533C125.279 33.2253 125.206 40.3973 125.206 47.5693C125.133 52.4726 127.621 57.0831 131.865 59.5714C137.207 62.7914 144.744 61.7669 148.915 57.0099C151.549 54.229 152.574 50.3502 152.501 46.5447C152.574 31.0298 152.647 15.5149 152.574 0Z" fill="white"/>
<path d="M20.1968 34.3231C22.0994 29.3466 26.8559 26.0533 32.1247 26.0533C41.2718 25.9802 50.4189 26.0533 59.6392 26.0533C59.6392 28.1757 59.7123 30.298 59.7123 32.3471C50.8579 32.4203 42.0035 32.3471 33.1491 32.3471C30.0757 32.0544 27.2218 33.9572 26.3437 36.8845C25.6119 39.8118 28.0999 42.8855 31.1002 43.0319C38.1983 43.3978 45.2965 42.7392 52.3947 43.3246C58.4683 43.9833 63.1517 48.9598 63.5907 55.034C64.2493 61.9132 58.1756 68.4266 51.297 68.3534C34.1736 68.3534 17.0502 68.4266 0 68.3534C0 66.1579 0 63.9624 0 61.8401C17.4893 61.6205 34.9785 62.0596 52.4678 61.6205C57.8829 60.23 58.322 51.8139 52.8337 50.2039C45.2233 49.3989 37.5397 50.4234 29.9293 49.6916C22.9775 48.8134 17.6356 41.1291 20.1968 34.3231Z" fill="white"/>
<path d="M85.5438 26.6388C96.0081 23.931 107.643 30.8834 110.497 41.2755C113.205 49.472 109.765 58.8395 103.179 64.1819C106.765 70.988 109.912 77.9404 113.424 84.8197C112.327 87.0884 111.229 89.4302 110.131 91.7721C99.4474 91.7721 88.7636 91.6989 78.0798 91.7721C70.6157 91.7721 64.1762 98.7977 64.6152 106.189C64.6884 113.215 70.9084 119.582 78.0066 119.655C86.1292 119.728 94.2519 119.728 102.375 119.655C100.326 116.215 98.7157 112.483 96.5935 109.117C89.9344 109.263 83.2022 109.117 76.5431 109.19C76.5431 106.994 76.5431 104.799 76.5431 102.603C84.812 102.676 93.081 102.53 101.35 102.676C104.204 108.385 107.131 114.02 110.131 119.728H117.742C117.742 122.07 117.668 124.412 117.742 126.754L113.497 126.607C115.985 130.998 118.108 135.536 120.522 140H112.619C110.351 135.609 108.009 131.145 105.814 126.681C96.1545 126.534 86.4219 126.827 76.7626 126.534C66.3715 125.729 57.883 116.508 57.5902 106.189C57.3707 95.5776 66.0788 85.5515 76.8358 84.966C86.4219 84.5269 96.0813 84.966 105.667 84.7465C102.74 79.0382 99.8865 73.2567 97.1789 67.4752C92.7151 68.7925 87.8123 69.0852 83.3485 67.402C74.7868 64.5478 68.5668 55.6926 69.079 46.6179C69.1522 37.1772 76.3235 28.5416 85.5438 26.6388ZM76.0308 48.7402C76.6894 57.2295 85.8365 63.5233 93.9592 61.1082C91.6907 56.4245 89.4222 51.7407 87.0074 47.1302L94.7641 47.2034C96.5935 50.7162 98.0571 54.3753 100.252 57.6686C102.74 54.5217 104.716 50.7162 104.277 46.5447C104.058 39.08 97.1058 32.6398 89.5685 33.2253C81.6654 33.0789 75.0795 40.9096 76.0308 48.7402Z" fill="white"/>
<path d="M168.966 26.0533C171.234 26.0533 173.429 26.0533 175.698 25.9802C176.503 40.1046 175.771 54.229 176.064 68.3534C173.722 68.4266 171.307 68.4998 168.892 68.4266C169.039 54.3754 168.966 40.1778 168.966 26.0533Z" fill="white"/>
<path d="M186.089 26.0533C196.919 26.1265 207.822 25.9069 218.653 26.1265C229.117 26.7851 238.118 36.0794 238.191 46.5447C238.776 57.5954 229.41 67.9874 218.36 68.3534C207.603 68.4997 196.846 68.3534 186.089 68.4266C186.089 54.3753 186.089 40.1777 186.089 26.0533ZM193.26 32.9326C193.333 42.5196 193.26 52.1798 193.26 61.7668C201.31 61.6937 209.359 61.84 217.409 61.6937C225.458 61.5473 232.556 53.4971 231.093 45.3738C230.434 38.5677 224.214 32.9326 217.409 32.9326C209.359 32.8594 201.31 32.9326 193.26 32.9326Z" fill="white"/>
<path d="M137.792 84.6733C144.817 98.505 151.11 112.703 157.989 126.607C155.501 126.607 152.94 126.534 150.452 126.534C146.207 117.899 142.256 109.19 138.012 100.554C133.767 109.19 129.816 117.899 125.572 126.534C123.157 126.534 120.742 126.534 118.254 126.534C124.474 112.483 131.718 98.8709 137.792 84.6733Z" fill="white"/>
<path d="M165.965 85.1856C168.16 84.6733 170.429 84.5269 172.697 84.6733C178.625 96.3827 184.186 108.238 190.26 119.875C196.041 108.165 201.822 96.3827 207.603 84.6733C209.725 84.6733 211.92 84.6733 214.042 84.6733C214.115 89.723 214.042 94.6994 214.115 99.7491C214.042 105.75 214.042 111.824 214.115 117.825C214.042 120.753 214.042 123.68 214.042 126.607H207.017C207.09 117.825 207.017 108.97 207.091 100.188C202.627 108.97 198.382 117.825 193.992 126.607H186.381C181.991 117.825 177.747 109.043 173.356 100.261C173.21 109.043 173.356 117.899 173.283 126.681C170.868 126.681 168.526 126.607 166.111 126.607C166.038 112.776 166.258 99.0173 165.965 85.1856Z" fill="white"/>
<path d="M223.994 84.6733C237.898 84.6733 251.802 84.6733 265.705 84.6733C265.705 87.0883 265.705 89.4302 265.705 91.8453C254.07 91.7721 242.508 91.8453 230.873 91.8453C230.873 101.066 230.873 110.288 230.873 119.435C242.508 119.435 254.07 119.509 265.705 119.435C265.705 121.85 265.705 124.266 265.705 126.607C251.802 126.607 237.898 126.607 223.994 126.607C223.994 112.629 223.994 98.6513 223.994 84.6733Z" fill="white"/>
<path d="M246.899 102.164C253.192 102.164 259.412 102.164 265.705 102.164C273.828 102.164 281.877 102.164 290 102.164C290 104.506 290 106.848 290 109.19H265.705C259.412 109.19 253.119 109.19 246.826 109.19C246.899 106.775 246.899 104.506 246.899 102.164Z" fill="white"/>
<path d="M76.0307 48.7402C75.0062 40.9096 81.6653 33.1522 89.6416 33.1522C97.1056 32.5667 104.057 39.0068 104.35 46.4715C104.716 50.643 102.813 54.4485 100.325 57.5954C98.1301 54.3022 96.6666 50.643 94.8371 47.1302L87.0804 47.057C89.4952 51.6676 91.7637 56.3513 94.0322 61.0351C85.8364 63.5233 76.6893 57.2295 76.0307 48.7402Z" fill="#ED1B76"/>
<path d="M230.873 91.8453C242.508 91.8453 254.07 91.8453 265.705 91.8453C265.705 95.2849 265.705 98.6513 265.705 102.091C259.412 102.091 253.192 102.091 246.899 102.091C246.899 104.433 246.899 106.775 246.826 109.043C253.119 109.043 259.412 109.043 265.705 109.043C265.705 112.483 265.705 115.923 265.705 119.362C254.07 119.435 242.508 119.362 230.873 119.362C230.946 110.214 230.946 101.066 230.873 91.8453Z" fill="#ED1B76"/>
<path d="M125.572 126.607C129.816 117.972 133.767 109.263 138.012 100.627C142.183 109.263 146.207 117.972 150.452 126.607C142.183 126.607 133.841 126.607 125.572 126.607Z" fill="#ED1B76"/>
</svg>
